# xmcd
#
# Track frame offsets: 
#        150
#        14203
#        25449
#        44235
#        59178
#        73356
#        92736
#
# Disc length: 1608 seconds
#
# Revision: 0
# Processed by: cddbd v1.5.1PL0 Copyright (c) Steve Scherf et al.
# Submitted via: ExactAudioCopy v0.95a5
#
DISCID=75064607
DTITLE=Melissa Harper - Melissa Harper
DYEAR=2004
DGENRE=
TTITLE0=I Only Want
TTITLE1=That Way
TTITLE2=Take Me
TTITLE3=Another Mile
TTITLE4=Dropped the Ball
TTITLE5=Do I Know You
TTITLE6=The Day We Met
EXTD=
EXTT0=
EXTT1=
EXTT2=
EXTT3=
EXTT4=
EXTT5=
EXTT6=
PLAYORDER=
